<?xml version="1.0" encoding="utf-8"?>
<!-- Generator: Adobe Illustrator 26.0.3, SVG Export Plug-In . SVG Version: 6.00 Build 0)  -->
<svg version="1.1" id="Layer_1" xmlns="http://www.w3.org/2000/svg" xmlns:xlink="http://www.w3.org/1999/xlink" x="0px" y="0px"
	 viewBox="0 0 53 25" style="enable-background:new 0 0 53 25;" xml:space="preserve">
<style type="text/css">
	.st0{fill-rule:evenodd;clip-rule:evenodd;fill:#003865;}
</style>
<desc>Created with Sketch.</desc>
<g id="Symbols">
	<g id="School-Header" transform="translate(-39.000000, -40.000000)">
		<g id="Header">
			<g id="School-Logo" transform="translate(39.000000, 40.000000)">
				<g id="Group-4">
					<path id="Fill-26" class="st0" d="M28.4,22.1c-0.2,0-0.4,0.2-0.4,0.4l0,0c-0.3,0.7-0.7,1-1.7,1c-0.9,0-1.2-0.2-1.7-1l0,0
						c0-0.2-0.2-0.3-0.4-0.3H4c1.5-0.2,3.3-0.6,5-0.9c6.5-1.4,13.9-2.9,17.1,1.3l0.1,0.2h0.5l0.1-0.2c3.3-4.2,10.7-2.6,17.1-1.3
						c1.6,0.3,3.2,0.7,4.6,0.9H28.4z M12.6,3.6C13.6,3.5,15,3,16.4,2.5c1.9-0.7,4-1.4,5.9-1.4c1.9,0,2.9,0.8,3.7,2.4v13.9
						c-1.4-1.4-3.3-2.1-6-2.1c-2.8,0-6,0.8-8.8,1.4c-2,0.5-4,1-5.5,1L12.6,3.6z M30.9,0.9c1.8,0,3.9,0.8,5.7,1.4
						c1.4,0.5,2.8,1,3.9,1.1l6.8,14.3c-1.6-0.1-3.7-0.6-5.8-1.1c-2.9-0.7-5.8-1.4-8.6-1.4c-2.6,0-4.5,0.7-5.9,2.1V3.5
						C27.9,1.7,29,0.9,30.9,0.9z M52.7,22.9c0,0,0.1-0.1,0.1-0.1c0.1-0.1,0.1-0.3,0-0.4L45.2,6.5c-0.1-0.2-0.2-0.2-0.4-0.2h-0.7l0,0
						l-0.2-0.1h-0.3l-0.3-0.6l-0.2-0.1h-0.2l-0.3-0.6l-0.2-0.1h-0.2L42,4.2L41.8,4h-0.2l-0.3-0.6l-0.1-0.1l-0.3-0.7l-0.2,0
						c-1.1-0.1-2.4-0.6-3.9-1.1c-1.9-0.7-4-1.5-5.9-1.5c-2,0-3.4,0.8-4.4,2.5c-0.9-1.6-2.3-2.4-4.2-2.4c-1.9,0-4.1,0.8-6.1,1.5
						c-1.4,0.5-2.8,1-3.8,1.1l-0.2,0l-0.3,0.6h-0.1l-0.2,0.1L11.3,4h-0.2L11,4.2l-0.3,0.6h-0.2l-0.2,0.1L10,5.4H9.8L9.6,5.5L9.3,6.1
						H9.1L8.9,6.2l0,0H8.2C8,6.2,7.9,6.3,7.8,6.5L0.1,22.3c-0.1,0.1-0.1,0.3,0,0.4c0,0,0.1,0.1,0.1,0.1C0.1,22.9,0,23.1,0,23.2
						c0,0.2,0.2,0.4,0.4,0.4h23.2c0.6,0.8,1.3,1.4,2.7,1.4c1,0,2-0.2,2.7-1.4h23.4c0.2,0,0.4-0.2,0.4-0.4
						C52.9,23.1,52.8,22.9,52.7,22.9L52.7,22.9z"/>
				</g>
			</g>
		</g>
	</g>
</g>
</svg>
